<svg xmlns="http://www.w3.org/2000/svg" version="1.0" viewBox="0 0 2048 2048"><path d="M965.5 1.6c-66.2 4.4-108 9.9-152 20.1-8.2 1.9-19 4.3-24 5.4-4.9 1.1-13.7 3.3-19.5 4.9-5.8 1.7-17.9 5.1-27 7.6-42.3 11.8-107.7 37.3-156 60.8-32.1 15.6-65.8 35.2-109 63.5-31.9 20.8-83.2 60.9-117.5 91.7-18.1 16.2-47.1 44.8-65.5 64.4-19.3 20.7-30.8 34.1-58 67.8-20 24.9-52 70.1-65.3 92.4-2.4 4-6.6 10.9-9.3 15.3-9.1 14.6-23 38.9-27.9 48.5-25.7 50.7-42.2 86.5-51.5 111.5-1 2.7-2.9 7.5-4.3 10.5-7.8 17.7-30 88-37.1 118-7.6 32-16.9 81.5-19.5 104.2-.6 4.6-1.9 15.5-3 24.3-3.4 26.7-5.1 49.4-6.3 84.3-1.7 48.3.3 94.1 6.2 142.7 3 24.6 9.5 65.4 13 82 1.7 8.2 4 19.3 5.1 24.5 2.8 13.6 11.3 47.2 16 63 9.8 32.6 27.4 82.5 37.6 106.4 1.9 4.4 3.1 8.6 2.8 9.3-.2.8-.1 1.1.4.8s1.3.5 1.7 1.7c.3 1.3 2.9 7 5.6 12.8 2.8 5.8 5.8 12.5 6.8 15 4.1 10.3 36.7 71.6 43.2 81.2 2.1 3.1 3.8 5.9 3.8 6.1 0 2.4 37.2 59.2 50.9 77.8 4.7 6.4 12.2 16.5 16.6 22.5 4.3 6 8.4 11.4 9 12.1.5.6 3.3 4 6 7.4 2.8 3.5 6.6 8.1 8.6 10.3 1.9 2.3 5.3 6.3 7.5 9.1 2.1 2.7 4.1 5.2 4.4 5.5s3.4 3.9 7 8c25.9 30 67.4 72.1 93.5 94.8 2.8 2.4 9.1 8 14 12.3 15 13.1 42 34.8 60 47.9 18.1 13.4 18.2 13.5 27.1 19.5 3.3 2.2 6.1 4.3 6.4 4.6s3.9 2.8 8 5.4 11.1 7.1 15.5 10c13.8 8.9 38.1 23.6 56 33.7 8.8 5 42.3 22.8 42.9 22.8.2 0 7.8 3.5 16.8 7.9 8.9 4.3 18.6 8.8 21.3 10 2.8 1.2 6.4 2.9 8 3.6 5.9 2.8 17.3 7.5 25.5 10.5 4.6 1.7 9.8 3.7 11.5 4.5 1.6.8 10.9 4.2 20.5 7.5 9.6 3.4 20.2 7.2 23.5 8.5 12.7 5.1 66.5 20.1 86 24 3.9.8 14.7 3 24 5 28.8 6.1 69.4 12.6 91 14.4 37.6 3.3 49.2 4.1 69.8 5.1 12.5.5 30 1 39 1 33.1 0 92.2-3.9 122.2-8 3.9-.5 9-1.2 11.5-1.5 14.2-1.8 32.4-4.6 36.1-5.4 2.4-.6 14.8-3.1 27.6-5.6 22.6-4.5 61.1-13.9 78.3-19.2 23.7-7.3 51.9-16.7 64-21.4 7.4-2.8 15.8-5.9 18.5-6.9 2.8-1 8.7-3.4 13.2-5.4s8.4-3.6 8.8-3.6c2.5 0 73.9-34.1 83.5-40 .8-.5 8.9-5 18-10.1 39.6-22.2 85.1-52.2 117.9-77.7 9-7 18.5-14.2 21-16.1 4.1-3.1 29.8-24.6 31.1-26 .3-.3 6.8-6.2 14.5-13.1 19.8-17.6 25-22.6 48-46.2 23.4-24 30.1-31.2 39.5-42.3 4.7-5.5 8.7-10.2 9-10.5 4.2-4.1 38.1-45.9 43-53 1.4-1.9 2.9-4 3.5-4.6.5-.6 1.7-2.2 2.5-3.4s2.1-2.8 2.8-3.6c.6-.7 1.2-1.7 1.2-2.3s.5-1.1 1-1.1c.6 0 1-.5 1-1 0-1.1 4.2-7.2 11.3-16.7 5.1-6.7 24.7-36 24.7-36.8 0-.3 2.7-4.8 5.9-9.9 15.4-24.1 47.8-84.7 59.7-111.6 7-15.7 15.9-36.6 18.8-44.5 1.3-3.3 4.7-12.1 7.5-19.5 7.7-19.9 19.5-55.9 25.2-77 10.6-38.8 12.1-44.8 14.4-56 1.3-6.3 3.6-16.9 5-23.5 3.9-18.4 5.3-26.1 7-37.5.8-5.8 2.4-16.6 3.5-24 1.9-12.5 3.9-32.1 7.5-71.5 3.1-34.1 2.8-104.6-.5-136-.5-5-1.4-14.6-2-21.5-1.7-18.9-3.8-37.6-6.6-57-2.2-15.5-3.7-23.9-9.9-55.5-7.5-37.9-22.1-91.8-33.5-123.5-2.8-8-6.1-17.2-7.2-20.5-3.2-9.2-20-50.8-25.1-62-23.1-51-51.2-103.3-75.5-140.5-20.8-31.8-28.4-43.1-34.4-51.1-14.8-19.9-17.9-24.2-29.6-39.4-19.6-25.4-48.8-58.1-78.7-88.1-19.2-19.2-45-43.7-52.3-49.7-2.1-1.8-7.1-5.9-10.9-9.2-22-18.8-31.1-26.1-52.8-42.4-61.6-46.2-131.7-86.8-199-115.2-7.7-3.3-16-6.8-18.5-7.9-10.4-4.5-43.5-17.1-56-21.3-31.8-10.7-93.8-27.2-121-32.2-4.7-.8-13.2-2.4-19-3.6-12-2.3-20-3.4-59-8.4-45.7-5.8-128.5-8.1-176.5-4.9m125 23.4c18.8 1.3 65.6 6 66.6 6.6.4.2 7 1.3 14.6 2.4 31.6 4.4 66 11.6 102.8 21.6 56.2 15.3 82.2 24.5 144.5 51.2 16.3 6.9 64 31.3 79.5 40.5 3.9 2.3 8.1 4.8 9.5 5.5s5.9 3.4 10.1 6c4.3 2.6 11.5 7 16 9.8 15.2 9.3 29.2 18.6 44.7 29.8 8.5 6.1 17.3 12.4 19.5 14 7.2 5 36 27.8 41.3 32.7l5.2 4.8h-5.7c-7.3 0-37.5 2.1-38 2.7-.9.8 6.5 7.6 9.8 9 2.4 1 7.7 1.4 18.6 1.4h15.3l1.7 4.7c4.3 12 6.1 16.3 9.7 23 3.7 6.7 9.5 13.3 11.9 13.3 1.2 0 .7-2.8-3.8-22.5-1.8-8.2-3.2-15.8-3.1-16.8.2-1.3 5.4 3 19.8 16.4 72.1 67.2 118.9 124 179.5 217.9 2.3 3.6 6.1 9.9 8.4 14 2.4 4.1 5.7 10 7.5 13 14.4 24.5 26 46.8 43 82.5 7.4 15.7 11.3 24.9 22.3 52 2.2 5.6 11.7 31.4 18.4 50 3.2 9.1 10.1 31.3 12.3 39.5.8 3 2.9 10.7 4.6 17 10.6 37.8 14.8 58.1 25.1 119 10.9 64.7 12.9 173.4 4.4 243.5-.3 2.2-1.2 9.8-2 17-.9 7.1-2.3 16.8-3.1 21.5s-3.3 19.1-5.5 32-4.6 26.1-5.5 29.3c-.8 3.2-2.3 9.8-3.4 14.5-10 46.8-34.8 125.4-50.5 159.7-.7 1.6-3 7-5 12-5.3 12.7-8 18.6-19.3 41.2-25.3 50.7-42.5 80.6-69.6 120.7-5.6 8.2-10.6 15.8-11.3 17-.7 1.1-3 4.3-5.2 7.1-2.2 2.7-8.1 10.7-13.1 17.7-5.1 7-11.8 15.9-15.1 19.7-3.2 3.9-5.9 7.5-5.9 8.1 0 .5-.3 1-.8 1-.4 0-2.5 2.3-4.7 5.1s-5.1 6.4-6.5 7.9c-1.4 1.6-5.8 6.7-9.9 11.4-4 4.7-7.8 8.3-8.4 7.9q-.9-.45-.3.6c.4.6-1.8 4.1-5.6 8.4-8.8 10.1-34.2 37.3-39.7 42.6-2.5 2.4-11 10.5-18.7 18-7.8 7.5-16.4 15.4-19 17.6-2.7 2.2-7.5 6.5-10.9 9.6-3.3 3-9.8 8.7-14.5 12.6s-11.9 9.9-16 13.4-10.5 8.6-14.1 11.4c-3.6 2.7-9.8 7.6-13.7 10.7-3.9 3.2-7.3 5.8-7.6 5.8s-4.1 2.6-8.5 5.7c-14.1 10.4-32.5 23.3-39.6 28-28.7 18.8-88.9 52.9-111 62.9-3.8 1.8-11.7 5.6-17.5 8.4-5.8 2.9-12.1 5.8-14 6.5s-7.8 3.2-13 5.5c-33.9 15.1-85.6 33-126.5 43.7-63.5 16.6-119.1 26-180 30.5-23 1.7-111.7 1.7-133.5 0-39.3-3.1-94.2-11-130.6-18.8-6.5-1.4-13.9-2.9-16.4-3.4s-9.2-2.1-15-3.5c-5.8-1.5-13-3.3-16-4-8.1-1.9-54.1-15.6-63.5-19-25-8.9-42.8-15.7-51.2-19.6-2.4-1-4.5-1.9-4.8-1.9-.5 0-15.5-6.3-24.5-10.2-16.5-7.3-35.8-16.7-50.9-24.7-7.4-3.9-14.4-7.4-15.5-7.7-1.2-.4-2.3-1-2.6-1.3-.3-.4-6.1-3.8-13-7.6-16.9-9.3-30-17.2-45.1-27-6.9-4.6-14.6-9.5-17-11-2.4-1.6-4.6-3.1-4.9-3.4s-1.3-1.1-2.2-1.6c-11-6.5-48.4-34.3-67.3-50-4-3.3-10.1-8.3-13.6-11-24-18.9-64.7-57.1-91.9-86.1-17.9-19-29.1-31.3-31.2-34-1.2-1.6-4.7-5.8-7.8-9.4-6.8-7.9-25.2-30.6-30-37.2-1.9-2.6-6.2-8.5-9.6-13-7.8-10.6-18-24.8-22.7-31.5-3.7-5.3-20.3-31.3-29.3-45.8-2.7-4.4-6.3-10.2-8.1-13-1.8-2.7-3.3-5.3-3.3-5.7 0-.5-1-2.5-2.3-4.6-5.8-9.2-10.1-16.9-18.7-33.7-5.1-9.9-9.6-18.5-10-19-1-1.3-11.4-24-21-45.5-12.8-29-37.9-97.3-42.5-116-.7-3-2.8-10.9-4.5-17.5-5.5-21.1-8.9-34.8-10.5-43-.9-4.4-2.2-10.3-3-13-1.7-5.8-10.2-51.6-11.5-62-.5-3.9-1.6-11.7-2.4-17.5s-2.7-23.6-4.3-39.5c-2.6-27.2-2.7-32-2.8-79.5 0-52.1.8-71.6 4.6-106 2.3-21.5 7.4-57.6 9.4-67 .8-3.6 2.8-14.2 4.6-23.5 5.7-30.9 13.3-61.2 24.4-97 9-28.9 13.8-42.7 17.9-52 .8-1.7 2.4-6.2 3.7-10 8.4-26 44-102.7 60.8-131.4 3.8-6.4 9.4-16.1 12.6-21.6 12.8-22.3 38.9-62.7 50.6-78.7 3.5-4.7 11.1-15.1 16.9-23 10.9-14.9 23.1-30.3 33.4-42.4 3.4-3.8 7.6-8.8 9.4-11 24.9-29.6 75.2-79.8 107.7-107.6 5-4.2 12.8-10.8 17.4-14.8 38.5-32.9 91.8-69.8 141.6-98.1 27.2-15.5 84.2-43.9 87.9-43.9.4 0 5.4-2 11.1-4.5 21.6-9.4 56.3-22.2 83.5-30.6C773.1 54.7 820.6 43 851.5 38c7.2-1.1 18.2-2.9 24.5-4 6.3-1 17.4-2.6 24.5-3.4 7.2-.9 16.6-2.1 21-2.6 9.6-1.2 31.2-2.8 53-4 20-1.1 95.9-.4 116 1"/><path d="M1051.8 87.7c-3.7 7.6-9.3 19.2-12.4 25.8s-11.7 24.4-19.1 39.5c-17.9 36.4-29 60.1-29.5 62.5-.3 1.8.5 2.1 9.2 2.8 5.2.4 16 1.4 24 2.2s16.8 1.5 19.5 1.5h5l4.4-10.6c2.4-5.8 5.1-10.9 6-11.3s5.4-.5 10.1 0c4.7.4 15 1.2 23 1.8 23 1.9 20.8.6 24.9 13.9 2 6.3 4.3 11.7 5.1 12.2 3.4 1.9 57.3 4.9 58.3 3.3.8-1.3-1.3-7.6-41.3-125.3-2.8-8-6.1-17.2-7.4-20.5l-2.5-6-14.3-1.2c-7.9-.6-18.6-1.4-23.8-1.7-11.3-.8-20.6-1.5-27.5-2.1l-5-.5zm41.2 37.1c.6 3.1 1.8 7.7 2.6 10.2 2.6 7.9 8.5 31.2 8 31.7s-31.7-1.4-32.2-2c-.2-.2 1.2-3.7 3.1-7.8 4.6-10.1 15.5-36.7 15.5-38 0-.6.4-.8.9-.4.5.3 1.5 3.1 2.1 6.3M819.4 93.1c-18.5 2.4-43.2 11.6-55.4 20.7-18.5 13.7-29.1 30.2-32.6 50.5-1.5 8.4-.6 25 1.7 33.2 2 7.2 10.7 23.9 15.6 30 12 14.9 31.4 24 53.4 25.2 21.6 1.2 44.8-6 61.6-19.1 5.7-4.5 9.3-8.9 15.1-18.6l2.1-3.4 1.2 2.9c.6 1.7 2.2 5.7 3.4 9 1.3 3.3 3 6.4 3.8 6.9 1.6 1 17.7-2.3 31.2-6.4 3.3-1 7.2-2.1 8.8-2.4 3.3-.8 3.3-1.3.2-14.6-1.4-5.8-3.7-15.7-5.1-22s-4-18.3-5.9-26.5c-1.9-8.3-3.7-16.5-4-18.3-.5-2.4-1.2-3.2-2.8-3.2-1.2 0-13 2.7-26.2 5.9-13.2 3.3-31.9 7.8-41.5 10-24.7 5.8-37.3 9.2-38.8 10.6-1.1 1-.8 3.6 1.9 14.4l3.2 13.1 3.6-.6c2-.4 13.3-2.8 25.1-5.4 11.8-2.7 21.8-4.6 22.3-4.3 1.3.8.7 5.8-1.2 8.9-2.9 4.8-10.1 10.1-17.5 12.9-5.6 2.1-8.3 2.5-17.5 2.5-16.2 0-24.4-3.7-30.5-13.9-4.6-7.6-5.8-12.1-5.8-20.5.1-20.9 17.1-35.4 38.8-33.1 5.5.6 7.3 1.3 12.4 5.1l5.9 4.5 7.3-3.5c4-1.9 9.8-4.4 12.8-5.6 12-4.8 28.7-12.7 29.4-13.8s-9.3-13.2-13.6-16.5c-17-12.8-38.2-17.8-62.4-14.6m470.4 18.7c-.9 1.5-3.4 7.4-5.6 13.2s-7 17.7-10.7 26.5-9.4 22.7-12.7 31c-3.3 8.2-6.9 16.8-7.9 19-1.9 4.2-2.3 5.2-9.5 22.8-3.5 8.6-8.4 21.5-8.4 22.3 0 .3 8.4 3.7 20.5 8.2 27.6 10.5 30.5 11.5 30.9 11.1.2-.2 5.6-13.7 12.1-29.9 20.5-51.5 18.8-47.7 19.7-44.4.5 1.6 2.4 10.8 4.3 20.4s4.4 20.9 5.4 25c1.1 4.1 2.9 12 4 17.5 3.2 16 7.2 31.9 8.5 33.2.6.6 5.4 2.8 10.6 4.8 11.8 4.6 30.9 12.4 41.7 17.2 4.4 1.9 8.6 3.4 9.3 3.1 1-.3 14.7-33.3 33.6-81.3 7.4-18.9 20.5-52.6 21-54.5.4-1-.8-2-3.8-3.1-8.5-3.3-41.4-16.9-44-18.3l-2.7-1.4-2.6 6.6c-1.5 3.7-3.3 8-4 9.7-.7 1.6-2.1 5.2-3 8-1 2.7-5.5 14-9.9 25-4.5 11-8.8 21.9-9.6 24.3-.7 2.3-1.5 4-1.7 3.9-.2-.2-3-13.2-6.2-28.8-11.6-56.3-14.5-68.8-16.1-69.3-.8-.2-5.3-2-10-4-4.7-1.9-16.6-6.6-26.5-10.4-9.9-3.9-19.6-7.7-21.6-8.5-3.5-1.6-3.6-1.5-5.1 1.1m-675.3 54.7c-3.8 1.9-7.4 3.4-7.8 3.5-.4 0-6.7 3-14 6.7-7.3 3.6-15.6 7.8-18.4 9.2-2.9 1.3-5.3 2.8-5.3 3.2s10 20.9 22.1 45.6c12.2 24.6 23.8 48.2 25.8 52.3 6.4 12.9 18.2 35 18.8 35 .7 0 18.3-9.3 35.7-18.9 7.2-3.9 13.3-7.1 13.6-7.1 3.7 0 1.7-4.5-27.7-63.4-36.5-73.1-34.7-69.6-35.3-69.6-.3 0-3.6 1.6-7.5 3.5m-133.2 75.3c-9.2 7-36.8 29.9-38.2 31.6-.9 1.1-1 2.3-.2 4.8 1.7 5.7 18.7 55.5 24.6 72.2 3 8.7 5.4 16.3 5.3 16.7-.3.9-13.2-6.6-40.8-23.6-33.3-20.6-42-25.6-43.2-24.9-5.9 3.5-46 37.6-45.1 38.4.4.5 5.7 3.4 11.7 6.5s12.5 6.6 14.5 7.9c2 1.2 5.4 3 7.6 4.1s8.3 4.3 13.5 7.1 15.1 8.1 22 11.6c12.4 6.5 52 27.5 63.6 33.9l6.1 3.3 2.5-1.9c2.5-1.9 30.1-24.4 43.4-35.3 3.5-2.9 6.4-5.6 6.4-6.1 0-.4-2-7-4.5-14.7-2.5-7.6-7.2-22.9-10.4-33.9-6.9-23.6-13.1-44-21.2-69.5-3.2-10.2-6.8-21.8-7.9-25.8-1.1-3.9-2.4-7.2-2.8-7.2s-3.5 2.1-6.9 4.8M1548 262.1c-14.7 2.3-25.8 7.9-36.8 18.4-14.5 13.6-23.7 31.9-25.7 50.6-1.5 14.1 5.1 34.2 17 51.3 1.1 1.6 5.8 7 10.5 11.9 17 17.8 37.7 30.8 60 37.8 10.8 3.3 30.8 3.4 43 .1 24.8-6.8 44.2-25.4 52.4-50.3 9-27.7-.5-57.3-26.3-82.8-27.7-27.3-64.3-41.7-94.1-37m36.1 51.5c8 2.4 12.1 4.8 18.7 10.8 7.2 6.7 11.4 15.1 12 24.1.5 8-1 13.1-6.1 20.7-3.5 5.3-5.3 6.8-10.9 9.7-5.5 2.8-8.2 3.5-14.5 3.9-7.6.4-8.1.3-16.3-3.9-9.9-5-18.4-12.8-22-20.4-3.5-7.2-3.4-17.8.2-25.7 3.5-7.6 9.8-14.1 17.1-17.8 7-3.5 13.3-3.9 21.8-1.4m-618.5 3.5c-31.8 2.8-65.2 7.7-92.6 13.6-41.6 8.9-90.9 24.9-127.6 41.4-2.2 1-6.5 2.7-9.4 3.9-5.9 2.3-53.2 26-54 27.1-.3.3-2.1 1.4-4 2.4-5 2.5-38.6 23.5-50.5 31.5-9 6.1-24.5 17.5-39.5 29.2-37.1 28.9-88.1 79.9-118.5 118.7-16.7 21.2-40.8 56-53.8 77.6-18.3 30.3-38.3 71-52.2 106.5-14.7 37.5-23.4 66.6-34.9 117.5-3.4 15.1-9 56.6-11.7 86-1.6 18.3-1.7 79.2-.1 100 3 38 13 101 19.1 120 1 3.3 3.1 10.5 4.5 16 5.8 21.7 21.5 67.3 30.1 87.5 2 4.7 4.8 11.1 6.1 14.4 4 9.4 20.1 40.9 28.8 56.1 9.8 17.4 18.1 30.8 30.4 49.5 27.3 41.5 71.9 93 110.2 127.4 7.4 6.6 13.7 12.3 14 12.6 4.6 4.8 33.2 27.9 49 39.6 12.9 9.6 38.8 26.5 60.5 39.6 27.3 16.5 77.7 41 107.7 52.4 54.7 20.8 109.4 34.2 167.3 40.9 55 6.4 83.4 6.9 139.5 2.4 33.1-2.6 80.1-11.1 121-21.9 65.3-17.1 147-53.8 198.2-89.1 3.1-2.1 5.8-3.9 6.1-3.9 1 0 23.1-15.6 41.1-29 47.1-35 104.8-92.9 138.9-139 2.6-3.6 7.6-10.3 11.1-15 10.5-14.2 39.6-59.3 39.6-61.3 0-.3 1.7-3.6 3.9-7.4 25-44.4 49.6-103.9 61.6-149.3 1.3-4.7 3.5-12.4 4.9-17.3 2.9-9.6 3.4-11.8 7.7-32.2 4.6-21.9 7.6-40.9 11.4-74 1.9-16.4 3.5-44.7 3.5-62.1 0-20.4-2.2-64.1-4-78.9-3.6-30.2-9.7-66.6-14-83.5-9.7-38.5-13.6-51.3-23.8-79.5-7.2-19.9-11.4-30.2-22.1-54.3-5-11.2-21.7-44.7-24.1-48.2-1-1.4-3.9-6.6-6.5-11.5-6-11.2-36.8-57.8-48.9-74-31.2-41.6-68.8-81.8-106.1-113.5-9.4-8-18.8-15.9-21-17.6-22.1-17.1-33.6-25.5-48.5-35.4-24.8-16.4-27.1-17.9-40.5-25.5-6.6-3.7-13.6-7.7-15.5-8.8-28.1-16-86.8-40.9-122-51.9-3.6-1.1-10.5-3.3-15.5-4.8-35.4-11-96.8-21.9-146-26-20.8-1.7-84.3-1.1-108.9 1.1m88.4 24.3c23.9.6 31.4 1.2 64 5.2 43.1 5.2 104.6 21 148.4 38.1 49.3 19.1 93 42.1 136 71.4 29.5 20.1 38.8 27.3 68.7 53 35.6 30.7 78.6 78 105.8 116.4 25.1 35.4 49.8 77.2 64.1 108.5 3.2 6.9 7.3 15.9 9.3 20 1.9 4.1 4.9 11.1 6.7 15.5 1.7 4.4 3.5 8.9 4 10 2.3 4.9 7.3 18.6 10.1 27.4 1.6 5.3 3.4 10.9 4 12.6 9 26.3 14.9 49.4 22.4 88.5 2.2 12 5.3 35.9 7.2 57 2.5 27.4 2.5 90.5 0 118-2.9 31.1-6.2 52.6-13.2 85-3.3 15.1-9.3 37.8-13.3 50-2.8 8.5-6.5 20.2-8.3 26s-6.1 17.5-9.5 26.1c-22 55-51.6 108.3-85.4 153.9-6.3 8.5-11.9 16.2-12.5 17.1-1.5 2.3-7.3 9.5-12.5 15.3-2.5 2.8-8.6 9.8-13.5 15.6-17.7 20.8-56.6 58.3-83.6 80.6-8.7 7.1-28.6 22.1-37.9 28.5-3.6 2.4-6.7 4.7-7 5-.3.4-6.3 4.4-13.5 9-7.1 4.6-13.1 8.7-13.3 9.1-.2.5-.8.8-1.3.8s-6.7 3.4-13.7 7.6-17 9.9-22.2 12.7c-5.2 2.7-12.6 6.7-16.3 8.9-3.8 2.1-7.1 3.8-7.4 3.8-.2 0-6.8 3-14.6 6.6-20.3 9.4-43.6 19.4-48.7 20.9-1.4.4-7.4 2.4-13.5 4.5-66.1 22.7-115.3 32.6-183.5 36.9-13.1.9-76.9.6-82-.3-1.4-.2-6.5-.7-11.5-1.1-21.2-1.5-57.7-7.1-81.3-12.5-24.2-5.6-53.6-13.4-61.7-16.4-3.3-1.3-10.7-3.7-16.5-5.5-9.1-2.9-19.3-6.8-30.5-11.6-1.6-.7-10.2-4.3-19-8.1-14.3-6.1-46.7-22-58.5-28.7-2.5-1.4-7.2-4-10.5-5.7-3.3-1.8-6.2-3.6-6.5-4s-4.3-2.9-9-5.5c-4.7-2.7-13.7-8.3-20-12.6-21.9-14.9-37.5-26-38.5-27.2-.5-.7-4.6-3.9-9-7.1-8.3-6.2-16.7-13.1-27-22.1-3.3-2.9-7.6-6.5-9.5-8-5.7-4.6-35.4-34.2-45.8-45.6-17.6-19.1-30.9-35-40.9-48.4-4.8-6.4-23-31.9-25.3-35.5-.6-.8-3.7-5.6-7.1-10.5-17.5-25.8-46.8-81.8-59.2-113-10.6-26.8-9.4-23.6-22-63-11.1-34.5-19.8-78.2-24.9-124.5-2-18.1-2.2-25.6-2.3-64 0-44.3.5-53 4.6-86 3.2-26 9.1-58.1 13.4-73.5.8-2.8 1.7-6.1 1.9-7.5 3.1-15.9 15.2-53.3 25-77.5 2-5 5.5-13.7 7.7-19.5 5.6-14.2 30.2-63.3 40.2-80 45.9-76.8 95.8-135.4 159.7-187.5 4.7-3.9 9-7.4 9.6-8 1.1-.9 5.6-4.3 25.4-18.9 35.6-26.1 76.1-49.4 122.4-70.3 37.9-17.1 92.3-34.6 131.1-42.3 3.3-.7 9.9-2 14.6-3.1 22.3-4.9 64.8-9.6 97.4-10.7 19.6-.7 21.7-.7 59.5.2"/><path d="M1096.9 567.4c-.2.2-12.8.9-27.9 1.5-34.1 1.4-56.2 3.2-94 7.6-42.3 5-44.4 5.3-81 12.5-33.2 6.5-47.4 9.9-92 22-39.6 10.7-101.5 32.8-137.5 49-3.3 1.5-7.1 3.1-8.5 3.5s-4.5 1.8-7 3.1-13.2 6.4-23.8 11.4c-27.4 12.8-50.2 24.7-53.5 27.8-8.4 7.9-7.9 18.7 1.3 24.8 6.9 4.6 9.1 4 36.9-10 21.4-10.7 38.8-18.8 70.6-32.9 4.4-2 12.1-5.1 17-7 5-1.9 14.4-5.6 21-8.2 30.5-12.2 100.2-34.4 127-40.5 10.7-2.4 12.7-2.9 31.5-7.4 27-6.6 41.5-9.2 70.5-13.1 6.6-.8 17-2.2 23-3 41.3-5.6 85.2-8.5 133.5-8.8l25.5-.2 5.5 3.1c3.5 2 6.6 4.8 8.8 8 3.2 4.7 3.4 5.2 3 12.5-.3 6.7-.7 8.2-3.7 12.6-4.5 6.6-11.7 12.5-24.6 19.9l-10.6 6.2 4.8 1.1c9.1 2.1 33.8 6.1 37.6 6.1 3.5 0 4.7-.7 11.2-7.3 11.4-11.4 16.5-23.5 16.5-39.2 0-8.9-1.6-15.6-6.1-25.1-6.5-13.7-20.6-24.3-38.6-29-4.9-1.3-35.2-2.1-36.4-1m-79.4 124.1c-36.3 2.7-70.9 8.4-115.2 19.1-7.8 1.9-14.9 3.4-15.7 3.4-.9 0-1.6.4-1.6.9s-1.5 1.1-3.2 1.5c-1.8.3-9.9 2.8-18 5.4-16.4 5.2-15.8 4.7-17.7 15.2-.6 3-1.9 9.8-3 15-2.4 11.8-4.7 38.1-6.3 74-1.8 39.6-1.9 37.4 2.4 46.1 7.7 15.5 23.8 27.4 44.6 33 9.7 2.6 29.6 3.6 39.9 2 20.9-3.2 34.8-10.3 64.6-33 32.4-24.7 52.3-39 70.1-50.6 17-11.2 33.8-21.8 47.1-29.7 30.8-18.5 46.8-27.8 50.6-29.5 2.1-1 3.9-2.1 3.9-2.6 0-1-6.8-.9-14.8.3-5.8.8-22 2.9-36.2 4.6-7.5.9-14.6 3.3-16.9 5.8-1.2 1.3-5.5 3.9-9.4 5.7-6.2 2.8-8.2 3.3-14.3 3.2-15.6-.2-27-10.4-29-25.9-.9-7.5 3.1-18.5 8.8-24 7.7-7.3 20.7-10.3 30.1-7 5.8 2.1 14.4 8.4 16.5 12.2.7 1.3 1.7 1 6.8-2.4 6.6-4.4 16.6-10.9 26.2-16.8 11.3-7 22.6-14.9 22.9-16 .4-1.4-12.9-3.8-35.8-6.4-38.1-4.4-70.3-5.5-97.4-3.5m-205.5 49c-1.4.7-5 2.1-8 3.1-8.7 2.8-30.5 13.5-42.5 20.8-21.3 13.1-35.7 24.5-54.7 43.4-6.5 6.4-11.8 11.9-11.8 12.2 0 .7 8.8 12.4 16.8 22.3 3.5 4.4 5.9 8.4 5.6 9-.4.7-.4.9 0 .5 1.2-1 7.5 6.4 25 29.5 2.2 2.9 7.4 9.2 11.6 14.2 4.1 4.9 12.9 15.6 19.4 23.7 6.5 8.2 12.2 14.8 12.6 14.8s2.5-1.8 4.6-4.1c4.2-4.3 15-13.1 27-21.7 7-5 8.4-6.6 6.6-7.4-1.3-.5-11.8-14.1-13.5-17.4-.9-1.7-2.6-6.9-3.8-11.5-2-7.8-2.1-9.8-1.5-30 1-34.3 4.3-72.7 7.7-90.7 1.1-5.7 1.9-10.8 1.7-11.2-.2-.5-1.4-.2-2.8.5m396.6 33.7c-.3 2.3-1.3 10.1-2.1 17.2-2 16.4-4.1 26.2-6.3 30.1-2.1 3.6-7.1 7.1-12.1 8.5-3.3 1-38.5 6-41.9 6-5 0 1.8 1.2 19.3 3.4 11 1.4 21.8 3.1 24 3.7 5.7 1.6 11 7.3 12.9 13.9 1.8 6.4 5.6 32.2 5.6 38.3 0 7.1 1.7 7.5 2.4.5 2.1-19.5 5.8-41.3 7.6-44.9 2.4-4.6 7.1-7.3 15.6-8.8 7.9-1.5 30-4.1 34.5-4.1 2.2 0 3.9-.6 4.2-1.4.4-1-1.3-1.4-7.6-1.9-11.3-.8-30.1-3.6-36.4-5.4-10-2.8-11.8-7.2-15.8-38.3-1.5-11.2-2.8-20.6-3-20.8s-.6 1.6-.9 4m141.9 64.9c-2.4 24.2-1.3 34.9 6.5 57.5 5.2 15.3 5.2 18.2.3 22.4-3.6 3-88.4 45.8-142.3 71.9-14 6.8-30 14.5-35.6 17.2-5.5 2.7-10.3 4.9-10.6 4.9-.4 0-4.4 2.2-9.1 4.9-4.6 2.6-14.2 7.7-21.3 11.3s-17.2 9-22.4 12-9.9 5.7-10.5 5.9c-3.5 1.4-42.3 25.4-43.5 26.9-.3.3-2.3 1.7-4.4 3-3.3 2-16.9 11.8-22.6 16.3-.8.7-3.1 2.3-5 3.7-6.7 4.7-18.3 14.2-33.1 27-4.7 4.1-9.7 8.4-11 9.6-4.7 4-32.8 34-40.2 42.9-12.3 14.9-35.1 45.7-45.3 61.3-5.3 8.1-10.9 16.5-12.4 18.7-1.4 2.2-3.9 6.5-5.4 9.5-1.6 3-3.3 6.1-4 6.9-3.1 3.8-21.7 40.1-31.7 61.8-10.3 22.4-26.2 69.6-35.3 104.8-2.3 8.8-4.4 16.5-4.8 17-3.2 5.1 14.1-.7 44.8-15.1 3.9-1.8 10.5-4.7 14.5-6.3 4.1-1.6 11.2-4.4 15.9-6.3 11.8-4.9 14.7-5.3 20.4-2.8 5.4 2.3 7.6 6.1 7.6 13.3s-3.6 11.9-22.5 29.2c-21.4 19.7-26.1 24.5-24 24.5 4.2-.1 31.2-7 57.8-14.9 12.7-3.8 19.9-6.3 36.4-12.7 3.4-1.3 6.4-2.4 6.8-2.4.3 0 3.2-1.2 6.3-2.6s9.3-4.1 13.7-6.1c4.4-1.9 14.8-6.8 23.2-10.8 12.3-6 15.1-7.7 14.7-9.2-.2-1-1.9-10-3.8-20.1-7.1-37-18.5-61.8-41.7-90.4-9.4-11.6-10.6-15.6-7-23.1 2.5-5.1 5.2-7.2 10.4-8.2 5.6-1.1 9.9 1 15.4 7.3 11.9 13.9 24.5 32.5 31.1 45.9 10.4 21.2 19.7 50 21.7 67.5.3 3.2 1 5.8 1.5 5.8 3.6 0 16.1-7.4 33.5-19.8 5.5-4 12.5-8.9 15.4-10.9 3-2.1 9.9-7.3 15.3-11.6 5.7-4.6 10.3-7.5 10.9-7.1q1.05.6.6-.3c-.4-.6 5.9-6.9 14.1-14.1 33.4-29.3 65.8-63.2 84.8-88.7 3.2-4.4 6.3-8.4 6.7-9 3.9-4.8 19-27.7 28.8-44 13.4-21.9 15.3-25.2 17.2-29 1.1-2.2 2.8-5.1 3.8-6.5 2.2-3.2 25.8-49.7 32.4-64 2.6-5.8 6.5-14.1 8.5-18.5 2.1-4.4 6.3-13.9 9.5-21 3.1-7.2 6.3-14.1 7-15.5 2.4-4.6 9.5-20.1 9.5-20.7 0-.9 15.2-34.7 16.1-35.8.4-.6 3.1-6.2 5.9-12.5 6.4-14.2 11.3-22.5 16-26.8 6.5-6.2 9.5-7 33.6-8.6 22.3-1.6 29.1-2.8 45.9-8.3 8.7-2.8 14.7-5.6 18.3-8.4l2.4-1.8-2.4-.6c-3.2-.7-52.6-10.2-68-13-11.9-2.2-18.8-4.9-18.8-7.4 0-.5-1-2.3-2.3-4.2-1.2-1.9-4.5-8.4-7.1-14.4-2.7-6.1-10.2-21.7-16.6-34.7-6.5-13.1-13-27.3-14.5-31.8-1.6-4.4-3.1-8-3.5-8s-1.5 7.7-2.5 17.1m-446 493.5c11.9 3.1 19 9.6 22.2 20.4 5.3 17.6-3.7 32.9-22 37.4-5.5 1.4-7.8 1.5-11.8.7-11.5-2.5-18.4-7.7-22.7-16.9-2-4.5-2.3-6.5-2-13 .7-14.9 9.5-25.8 23.5-29.1 5.5-1.3 6.2-1.3 12.8.5M674.1 848.2c-7.1 11.2-21.9 40.6-25.4 50.4-3 8.3-8.8 28.8-11 38.9-2.6 11.5-3.8 23.8-4.4 45.7-.5 19.1-.5 20.8 1.1 20.8.9 0 5.1 1.5 9.4 3.4 21.8 9.8 42.1 18.6 42.5 18.6.8 0 28.2 11.6 35.5 15.1 6.1 2.9 8.2 3.5 8.2 2.3 0-.3.9-5.2 2-10.7 4.6-22.9 15.6-50 27.4-67.4 6-9 6.2-9.5 4.3-11.5-2.1-2.2-13.6-16.4-27.6-34.3-7.4-9.4-13.9-17.5-14.5-18-.6-.6-6.5-7.7-13.1-16-13.1-16.4-14.3-17.8-16.5-20.5-11.7-14.3-15.6-18.9-16-19-.3 0-1.2 1-1.9 2.2m159.4 85.1c-10.4 5.6-20.5 13.4-18.9 14.5 1.6 1.2 11.8 12.5 14.9 16.6 1.7 2.2 4.1 5.3 5.5 7s3.9 4.9 5.5 7.1c4.3 5.9 12.7 15.8 21.9 25.9 14 15.4 18.3 16.2 50.1 9.5 22.6-4.8 48.8-9.9 50.7-9.9 2.1 0 9.3-3.5 11.6-5.7 2.2-2.1 3.9-7.6 3.6-11.3-.7-6.2-3.3-9.8-9-12.6l-5.3-2.6-12.3 2.1c-11.2 1.9-16.4 2.9-40.8 7.6-4.1.8-10.9 2.2-15 3.1l-7.4 1.6-1.9-2.4c-1-1.2-3.3-3.9-5-5.8-1.8-2-6.8-8.1-11.1-13.5-4.4-5.5-8.2-10.2-8.6-10.5-.6-.5-7.2-8.7-10-12.4-3.1-4.1-10.5-11.6-11.5-11.6-.5 0-3.7 1.5-7 3.3"/><path d="M1203.6 942.6c-7.7 10.3-17.9 22.7-23.2 28.4-2.4 2.4-4.2 4.6-4 4.7.1.1 3.1-1.2 6.6-3 3.6-1.8 11.3-5.5 17.3-8.2l10.7-4.8-.1-6.1c-.1-3.4-.4-9-.8-12.5l-.6-6.5zm-402.3 17.6c-5.5 5.7-10.6 11.3-11.2 12.5-.9 1.9-.5 3.5 2.5 10 2 4.3 4.7 10 5.9 12.8 1.3 2.7 4.6 9.9 7.4 15.8 2.8 6 5.1 11.1 5.1 11.4 0 1.5 9.4 19.1 11.3 21.1 1.2 1.3 3.6 3.1 5.2 4 3.3 1.7 23.9 7.2 38.4 10.2 5.1 1.1 12.8 2.9 17 4 13.7 3.8 30.5 6.9 31.2 5.8.4-.6 1.2-.8 1.8-.4s.9.2.6-.6 4.2-6 11-12.7c6.4-6.3 11.4-11.6 11.1-11.8-.2-.3-1-.6-1.8-.7-.7-.2-2.4-.6-3.8-.9-5.2-1.4-52-12.5-63.5-15.2-6.6-1.5-14.2-3.4-17-4.1-2.7-.8-5.2-1.3-5.5-1.2-.8.3-34-67.4-34-69.3 0-2-2.1-.4-11.7 9.3"/><path d="M773.1 1001.2c-1.3 3.5-4.1 10.4-6.2 15.4-5.5 12.8-5.3 16.2 1 25.6 2.7 4 6.2 9.8 7.9 12.8 7.5 13.8 28.1 45.7 33.6 51.8 4.5 5 6 5.2 48.6 5.2h39.7l1.3-4.8c1.4-5.6 2.7-9.3 5.1-14.7 1-2.3 2.1-5.3 2.4-6.8.4-1.5 1-2.5 1.4-2.3.4.3.7-.4.7-1.5 0-1.8-1.2-1.9-40.2-1.9h-40.1l-5-8.3c-13.6-22.4-24.2-39.7-25.2-40.9-2.1-2.5-10.7-16.3-16.1-26-3-5.4-5.7-9.8-6-9.8s-1.6 2.8-2.9 6.2m-135.6 37.4c.4 1.1 1.4 5.3 2.2 9.4 2.6 14.4 9.2 38.5 13.4 48.5 3.8 9.1 13.5 27.9 18.7 36.3 2.9 4.6 5.2 8.5 5.2 8.7 0 1.2 10 15.7 13.9 20.3 4.2 4.9 4.8 5.3 8.1 4.8 14.5-2.2 31.1-5 39.6-6.8l10.1-2.1-3.9-9.6c-10.3-25.2-14.9-43.1-16.6-63.6l-.7-8-7.5-3.7c-4.1-2-12-5.6-17.5-7.9s-10.4-4.6-10.9-5.1c-.6-.4-1.7-.8-2.6-.8-.8 0-4.2-1.3-7.5-2.9-14.5-7-37.3-17-42.4-18.6-2.1-.6-2.3-.5-1.6 1.1m293.4 14.1c-1.3 1.6-1.2 1.7.4.4.9-.7 1.7-1.5 1.7-1.7 0-.8-.8-.3-2.1 1.3"/><path d="M757.5 1063.2c-.7 9.6.3 26.3 2.2 38.2.4 2.4 2.8 7.1 6.1 12 3 4.5 5.5 8.6 5.5 9.3s.4 1 .9.7c.4-.3 1.1.3 1.5 1.3s1.4 2.5 2.2 3.3c.9.8 2.7 3.1 4 5 9.9 14.2 27.9 34.8 34 38.8 2.9 2 4.1 2.2 11.1 2.3 4.6.1 76.9-11.2 80.7-12.6 1.2-.4 1.3.3-3.5-18.3-1.6-6.2-3.1-11.5-3.4-11.8-.3-.2-3.4 0-6.9.6-6.9 1.2-36.8 5.7-43.4 6.6-2.2.3-5.8 1-8 1.5s-5.9.9-8.2.9c-4 0-4.4-.3-10.1-7.3-3.2-3.9-9.3-11.9-13.6-17.7-10.7-14.5-11.7-15.8-15.1-20.1-1.6-2-5.2-6.6-8-10.1-2.7-3.4-5.6-6.9-6.3-7.6-.7-.8-2.5-3-4-5-1.5-2.1-3.1-4.2-3.7-4.9-.5-.6-2.8-3.3-5-5.8-2.2-2.6-5-5.9-6.1-7.3l-2.2-2.7zm197.4 7c-9.9 7-20.2 19.8-23.4 28.9-2.7 7.5-3.4 18.6-2.1 30.4.7 6 1.8 12.3 2.4 13.8l1.2 2.8 2.7-3.3c1.5-1.8 7.2-8 12.6-13.7 13.1-13.8 12.7-13.1 11.5-21.6-.8-6.1-.3-28 .8-37.3.2-1.7 0-3.2-.4-3.2s-2.8 1.4-5.3 3.2m393.4 38.6c-.6 1-2.9 6.4-5.2 12-4.3 10.7-6.1 14.2-9.5 17.9-2.9 3.4.4 3.1 3.5-.3 1.3-1.4 7.4-6.2 13.4-10.5 15.5-11.1 22.4-16.3 22.4-17 .1-1.2-7.3-2.6-14.9-2.8-4.1-.1-7.7-.4-8-.6s-1.1.4-1.7 1.3m-592.8 77.9c-16.1 3.2-27.3 5.2-32.2 5.9-2.9.4-5.3.9-5.2 1.3 0 .3 4.3 4.2 9.5 8.6s10.1 8.6 10.9 9.2c.7.7 1.6 1.3 2 1.3.3 0 1.6.9 2.8 2.1 2.2 2 10.1 7.4 20.7 14.1 10.2 6.4 42.9 24.1 46.8 25.3l2.3.7-1.7-3.4c-3.1-6-15.6-24.1-24.4-35.3-7.7-9.9-15.7-21.2-20.4-28.8-1.8-3-1.4-3-11.1-1m596.1 53.5c-.4 2.9-1.3 10.7-2.1 17.3-3 25.7-5.9 31-18 32.9-2.2.4-6.5 1.1-9.5 1.6s-9.8 1.4-15 2c-16.1 1.8-15.7 2.1 7.3 5.6 23.2 3.4 26.8 4.6 29.9 10 2.3 4 4.3 14 6.2 31.3.9 8 1.8 14.6 2 14.8.6.7 2.5-8.7 3.6-18.2 1.5-12.9 4.5-26.8 6.5-29.9 1.2-1.7 3.4-3.1 6.9-4.1 4.7-1.3 25.4-4.5 40.1-6 7.4-.9 5.6-2-4.4-2.9-11.9-1-35.7-5.4-39-7.1-1.7-.8-3.9-3.2-5-5.3-1.9-3.9-5.6-25.1-6.7-39-.3-4.5-.9-8.2-1.4-8.2-.4 0-1 2.4-1.4 5.2m-670.4 12.5c-.7 6-1.7 16.4-2.3 23.3s-1.7 16.3-2.5 21c-.9 4.7-1.9 10.9-2.4 13.7-1.2 7.2-4.1 13.2-8.5 18.2-3 3.3-5.2 4.6-11.4 6.5-4.2 1.3-9.4 2.7-11.6 3.1s-4.9.9-6 1.1-5.6 1.1-10 1.9c-7 1.3-32.1 4-42.8 4.7-2 .1-3.6.7-3.4 1.3.4 1.1 3.6 1.6 31.2 4.5 22.2 2.4 34.7 4.3 42.1 6.5 9.9 2.9 16.1 9.8 19.4 21.6 1.9 6.9 7.1 45.4 8.5 63.1.4 4.3 1.1 7.8 1.5 7.8 1.2 0 1.7-3.3 3.5-22 .9-8.5 1.8-16.6 2-18 .3-1.4 1.4-8.5 2.5-15.9s2.9-16.2 4-19.6c3.7-11 12.1-16.7 29.1-19.4 7.9-1.3 34.4-4.8 41.9-5.6 21-2.2 27.2-3.9 15.8-4.3-9.5-.4-46-5.3-57.7-7.8-21.7-4.5-27.3-9.5-31.6-28-1.7-7.6-1.7-7.5-3.4-21.9-.7-5.5-1.9-15.6-2.8-22.5-.8-6.9-1.7-15.1-2-18.3-.3-3.1-.8-5.7-1.2-5.7s-1.3 4.8-1.9 10.7m536.9 68.3c-5.7 6.1-10.2 11.3-10 11.5s6.7-1.8 14.4-4.4 16.8-5.5 20.3-6.5c3.4-.9 6.2-2 6.2-2.4 0-.7-18.1-9.2-19.6-9.2-.5 0-5.6 5-11.3 11m-895.6 68.7c-15.9 10-31 19.5-33.5 21s-9.7 6.1-16 10.1c-34.5 22.3-46.9 30.7-46.1 31.2.5.3 3.7 5 7.1 10.5 9.1 14.5 21 32.6 23.5 35.7l2.2 2.6 14.9-10c8.2-5.5 15.7-10.4 16.7-11 2.1-1.1 2.4-.8 9.6 10.7 7.2 11.6 24.2 33.6 31.1 40.3 10.7 10.5 22.1 15.2 36.6 15.2 16.4 0 27.8-4.3 37.7-14.3 7-7.1 9.7-11.3 12.6-19.7 4.7-13.7 2.4-29.4-7-48.2-4.3-8.6-21.9-37-32.4-52.3-3.8-5.5-11.1-16.3-16.3-24s-10-14.5-10.6-15.1c-.8-.8-9 4-30.1 17.3M362 1456c8.9 14.7 10.1 23.4 4.2 29.2-6 6-14.4 5.5-21.9-1.5-3.9-3.6-16.4-21.1-17.8-24.9-.6-1.6 10-9.2 11.5-8.3.6.4.9.1.8-.6-.2-.7 2.6-2.9 6.1-5l6.3-3.7 3 3.4c1.6 1.8 5.1 7 7.8 11.4m1335.5-66.6c-5.4 1.1-15.9 5.7-20.7 9.1-6.8 4.7-19.5 18.6-27.2 29.7-8.3 12-13.1 21.8-18.2 36.8-3.7 10.8-3.9 12.2-3.9 23.5 0 11.8.1 12.1 3.7 19.7 6.2 13.1 11.9 18.7 22.4 22.2 11.4 3.8 25.6 1.4 37.4-6.2 6.4-4.2 22.1-19.6 37.5-37.1 10.9-12.2 18.5-19.1 21.1-19.1.8 0 2.3.9 3.4 2 3.8 3.8.5 14.6-8.1 26.2-8 10.7-14.2 14.9-25.3 17l-6.5 1.2-2.7 6.1c-1.4 3.3-3.2 8-3.9 10.5-.6 2.5-2.9 9.9-4.9 16.5s-3.9 12.7-4.1 13.6c-.5 1.5 3.3 2.9 12.5 4.4 4.6.8 16.8-1.9 24.4-5.3 8-3.5 15.8-9.4 29-21.7 7.2-6.8 17.4-21.8 24.7-36.5 16.1-32.4 15.7-61.9-1.2-78.7-10.3-10.3-21.1-13.6-34.7-10.8-9.1 1.8-16.4 5.1-22.9 10-7.5 5.7-19.7 18.1-28.6 29-10.5 12.9-21.1 23.5-23.5 23.5-1 0-2.5-1.2-3.2-2.6-1.2-2.2-1.2-3.4.3-9.2 1.8-6.7 3.9-10.2 11.2-18.1 4.9-5.4 10.2-8.8 16.9-11 4.7-1.5 5.1-1.9 6.4-6.1 7.8-26.4 11-38.5 10.6-39.2-.7-1.2-14.9-.8-21.9.6m-1225 156.5c-.3.6-1.1.8-1.7.5-.7-.4-.8-.2-.4.4.6 1.1-8.3 11.7-24.3 28.8-6.6 6.9-17.8 19.4-41.5 46.2-3.2 3.7-8 9.1-10.7 12-6.2 6.8-18.9 21.8-18.9 22.4 0 1.2 30.7 30.1 46.5 43.8 2.2 1.9 6.4 5.8 9.5 8.7 5.7 5.3 23 20.3 35.9 31.1 4.1 3.4 7.9 6.1 8.5 5.9s6.9-6.8 14-14.7l12.9-14.4-5-4.5c-10.9-10-22.2-20.1-29.8-26.7-4.4-3.8-9.8-8.5-12-10.5s-5.8-5.3-8-7.3l-4-3.6 5.5-5.5c3-3 5.8-5.5 6.1-5.5 1.6 0 6.9 5.3 6.2 6.2-.3.7-.1.8.6.4.6-.4 1.8 0 2.7.9 1.9 1.9 22.1 19 33.3 28.3l7.6 6.3 4-4.4c5.2-5.7 9.1-10.2 13.8-16 3.4-4.1 3.7-5 2.5-6.4-1.2-1.5-21.3-19.6-29.7-26.9-8.9-7.6-11-9.7-10.6-10.4.3-.4-.3-.7-1.2-.6-.9 0-2.4-1.1-3.2-2.6-1.6-2.7-1.5-2.8 3-7.4 4.2-4.2 4.8-4.5 6.8-3.2 1.2.7 1.9 1.9 1.6 2.6s0 1 .6.7c.9-.6 4.1 1.7 12.4 9 1.7 1.4 4.8 4.1 7 6 12.6 10.6 21.1 17.9 21.5 18.4.3.4 3.1 2.8 6.3 5.5l5.7 4.9 2.1-2.4c1.1-1.3 5.2-5.8 9-10s8.7-9.9 10.9-12.7l4-5-6.9-6.3c-3.7-3.5-11.3-10.3-16.7-15-24.7-21.6-28-24.5-29.4-25.9-.8-.9-5.5-5.1-10.5-9.5-13.4-11.7-27.4-24.5-31.6-28.8-2.3-2.4-3.9-3.5-4.4-2.8m1099 22.8c-6.6.7-21.7 4.6-28.7 7.2-19.1 7.4-45.8 27.4-58 43.6-5.8 7.6-13.1 21.2-16.3 30.2-4.6 13.3-5 29.8-1 43.3 2.7 9 11.2 23.3 18.4 31 8.1 8.6 15.5 13.1 28.6 17.3 9.3 3 10.9 3.2 23.5 3.1 11.5-.1 14.8-.5 22.3-2.8 4.8-1.4 9.3-2.6 10-2.6.8 0 5.2-1.9 9.9-4.3 26.8-13.6 49.8-35.8 60.3-58.1 4.7-9.9 5.7-13.3 7.5-24.5 2.2-13.4-1.9-34.7-9.3-48.1-1.7-3-7.2-9.6-12.1-14.6-7-6.9-11-10-17.1-13.1-10.5-5.4-27.6-8.8-38-7.6m1.6 55.2c5.8 2.8 13.2 10.1 16.1 16 1.7 3.4 2.4 6.8 2.6 13.3.3 7.6.1 9.4-2 14-6.1 13.2-24.3 24.8-39 24.8-8.9 0-18.8-5.2-23.6-12.6-9.8-14.9-8.6-29.2 3.7-42.5 13.1-14.3 29.1-19.2 42.2-13M623.5 1681c-15.7 2.4-24.8 7.7-32.5 19-9 13.2-10.3 27-3.8 39.9 3.7 7.3 13.3 18.1 21.2 23.8 2.8 2.1 5.3 4 5.6 4.4.5.6 20.7 13.9 26.7 17.5 5 3 12.9 11 14.3 14.5 2 4.8-.4 6.2-10.1 5.7-6.1-.4-9.1-1.2-15.1-4-12.5-6-16.1-10.1-20.8-24.1-1.3-3.7-2.5-6.7-2.9-6.7-.3 0-4-1-8.1-2.1-21.6-5.8-27-7.3-32.5-8.6-9-2.1-8.8-2.1-9.7 1.7-1.2 5.4.1 14.7 3.4 23.2 7.7 20.2 25.5 37.1 54.3 51.6 28.2 14.1 57.2 17.7 75.2 9.3 7.6-3.6 16.9-12.2 20.7-19.1 3.7-6.8 5.7-18 4.6-25.6-1.1-7.9-3.8-13.7-9.7-20.9-6.7-8.2-14.5-14.4-37.8-29.9-11-7.4-21-14.4-22.2-15.5-4.4-4.2-2.1-12.1 3.6-12.1 3.8 0 14.1 4 20 7.7 8.5 5.4 11.9 9 13.5 14.7 2.5 8.4 2.6 8.4 19.1 11.6 8.3 1.6 18.2 3.6 22 4.4 10.4 2.3 9.9 2.7 9.1-5.7-1.2-12.9-5.3-23.7-12.4-32.7-4.2-5.4-13.9-15-15.1-15-.5 0-1.4-.6-2-1.4-.7-.8-6.5-4.6-12.9-8.5-14.4-8.7-31.5-14.7-47.2-16.7-11.6-1.5-11.4-1.5-18.5-.4m727 30.5c-9 1.8-34 10.5-46 16-1.6.8-9.1 3.9-16.5 6.8-7.4 3-20.5 8.3-29 11.9s-16.3 6.8-17.2 7.1c-1.3.5-1.5 1.2-.9 3.4.9 2.9 19.2 49.4 21.6 54.8 2.3 5.1 8.3 19.6 11.6 28 3.5 9.1 4.3 10.9 13.7 33.5 4.6 11 7.3 16.4 8.3 16.3 1.3-.1 12.1-4.3 16.4-6.4 1.1-.5 5.8-2.4 10.5-4.3 15.4-6.2 30.4-12.3 37.8-15.5 4-1.8 7.8-2.9 8.5-2.5s.9.4.5-.1c-.4-.4 5.9-4.1 14-8.1 19.4-9.6 33.5-20.8 42.1-33.4 7.3-10.9 10.1-20.5 10.1-35.1 0-21.5-8.6-42-23.9-56.6-4.4-4.3-14.9-11.3-16.8-11.3-.5 0-2.7-.9-4.9-1.9-8.3-4-27-5.3-39.9-2.6m10.3 48.6c11.2 6.7 16.1 15.8 16.3 30.3.1 7.6-2.4 13.8-7.8 19.2-3.2 3.2-28.8 16.6-34.3 17.9-2.4.6-2.7.1-6.3-9.2-4.7-12.1-9.2-23.7-14.6-37.1-2.3-5.6-4.1-10.4-4.1-10.7 0-1.7 22.6-11.2 30-12.5 7.1-1.4 16.6-.4 20.8 2.1m-515.8 5c-18.5 2-32.7 8.1-44.3 19.2-10.8 10.4-16 19.2-20.8 35.7-5.7 19.4-2.2 42.4 9 58.8 4.2 6.2 14.4 16.2 21.3 21 18.9 12.9 49.5 21.4 76.8 21.3 26.7 0 45.1-7.5 61.3-25 5.1-5.6 14.2-21.5 13.2-23.1-.3-.4-4.9-2.1-10.2-3.8-25.3-8.1-36.1-11.3-39.4-11.8-3.4-.6-3.8-.3-5.9 3.2-5.9 9.9-15.3 14.8-28.3 14.7-10.7-.1-24.6-4.2-23.9-7.2.1-.7-.2-1-.8-.6-1.6 1-9.7-5.5-11.5-9.1-.8-1.8-2.2-6-3.1-9.4-1.3-5.2-1.4-7.3-.4-12.7 2.1-12.1 6.8-18.8 16.9-23.8 5-2.5 6.3-2.7 14.2-2.3 7.5.3 9.7.9 15.4 3.8 7.2 3.6 11.8 8.2 15.3 15.3 1.2 2.5 2.9 5 3.7 5.7 1.1.9 6.5 1.1 22.2.6 18.4-.6 31.4-1.4 32-2s-4.3-16.3-7-22.1c-3.3-7.2-10.5-17.3-16-22.6-5-4.9-16.5-11.5-26.2-15.3-21.2-8.1-41-10.8-63.5-8.5m287 10.6c-9.6 1-53.9 5.3-56.9 5.5-2.3.2-3.6.9-4.1 2.3-1.3 3.2-7.6 23.1-10.5 33-1.5 4.9-5.5 18-9 29s-8 25.4-10 32-4 13.1-4.5 14.5c-4.4 12.5-12.2 41.1-11.5 41.9.8.7 45.5-3.9 55.9-5.7l3.8-.7 2.3-8.5c3.9-14.4 3.9-14.3 7-15.2 1.6-.4 8.3-1.2 14.9-1.8 6.7-.6 15.3-1.5 19.1-2 3.9-.5 9.4-1.2 12.3-1.4l5.4-.5 5.3 11.4c3 6.3 5.8 11.5 6.2 11.5 1.1 0 35.5-3.6 46.8-4.9 5-.6 9.7-1.1 10.5-1.1s2.1-.4 2.8-.9c1.7-1 1.7-1-11.8-24.6-5.3-9.4-11.6-20.6-14-25s-6.2-11.2-8.5-15c-4.6-7.6-16.2-28-20.5-36-1.5-2.8-5.8-10.4-9.5-17-3.8-6.6-8-14.1-9.4-16.7-2.8-5.1-2.7-5.1-12.1-4.1m-11.9 62.8c1.1 2.7 2.7 6.4 3.5 8.2.8 1.7 2.7 6.3 4.3 10.2l2.8 7-6.6.6c-14.1 1.3-25.6 2.7-26.5 3.2-.4.3-.5-.5-.1-1.8 1-2.9 2.4-8.1 6-20.9 1.4-5.2 3.8-13.3 5.2-18l2.6-8.5 3.4 7.5c1.9 4.1 4.4 9.7 5.4 12.5"/></svg>